# xmcd
#
# Track frame offsets:
#	150
#	17710
#	29217
#	44256
#	63072
#	76032
#	97009
#	112539
#	130016
#	144641
#	161609
#	178836
#
# Disc length: 2568 seconds
#
# Revision: 0
# Processed by: cddbd v1.5.1PL0 Copyright (c) Steve Scherf et al.
# Submitted via: dBpowerAMP V4.0
#
DISCID=940a060c
DTITLE=Me and You - Løkk'lige da'er
DYEAR=1900
DGENRE=Dansband
TTITLE0=Løkk'lige da'er
TTITLE1=På gjengrodde stier
TTITLE2=Dog morgen världen
TTITLE3=Fem røde roser til deg
TTITLE4=No one needs to know
TTITLE5=En venn
TTITLE6=Livets lyckligaste dag
TTITLE7=Hjem
TTITLE8=Sol og sommer i dine øyna
TTITLE9=Våren kommer nå
TTITLE10=Teddybjørnen Frederiksson
TTITLE11=Låt sommaren gunga dej
EXTD=
EXTT0=
EXTT1=
EXTT2=
EXTT3=
EXTT4=
EXTT5=
EXTT6=
EXTT7=
EXTT8=
EXTT9=
EXTT10=
EXTT11=
PLAYORDER=
